<svg xmlns="http://www.w3.org/2000/svg" viewBox="0 0 688.8 70.33"><defs><style>.cls-1{fill:none;}.cls-2{fill:#231f20;}</style></defs><g id="Layer_2" data-name="Layer 2"><g id="Layer_1-2" data-name="Layer 1"><path class="cls-1" d="M30.7,25.31A15.65,15.65,0,0,1,31.81,24a12.47,12.47,0,0,1,2.63-2.13,47.41,47.41,0,0,1,10-4.34c.72-.23,1.46-.45,2.2-.66a97.11,97.11,0,0,1,13.49-2.73l2.5-.31c2.73-.3,5.38-.51,7.85-.62,0-.42,0-.81-.06-1.18-2.06-.11-4.88-.21-8.13-.21-17.63,0-30.68,2.86-36.76,8.05S18.09,34.31,18,41.19a68.2,68.2,0,0,0,.88,11.36c1.5.08,3.46.15,5.72.21,0-.92,0-1.87,0-2.84,0-.57,0-1.14,0-1.72a67.92,67.92,0,0,1,1.44-12c.12-.55.25-1.08.39-1.61A26.7,26.7,0,0,1,30.7,25.31Z"/><path class="cls-1" d="M86.87,24.92c-17.63,0-30.69,2.86-36.77,8s-7.38,14.44-7.45,21.32a69.43,69.43,0,0,0,.88,11.37c2.62.12,6.63.26,11.22.26,17,0,29.33-1.94,33.81-5.33,3.51-2.66,5.8-10.26,6.45-21.4a129.3,129.3,0,0,0,0-14.06C92.93,25,90.12,24.92,86.87,24.92ZM82,42.3c-.32,5.58-1.47,9.38-3.23,10.72-2.24,1.69-8.41,2.66-16.92,2.66-2.3,0-4.31-.07-5.62-.13a35.41,35.41,0,0,1-.44-5.69c0-3.44.71-8.09,3.73-10.67s9.58-4,18.41-4c1.62,0,3,.05,4.06.1A64.84,64.84,0,0,1,82,42.3Z"/><path class="cls-2" d="M98.94,21s-9.31-7.11-19.23-7.75c-.46,0-.94-.06-1.43-.07a63.43,63.43,0,0,1,10.1,7.36l.52.49c-.87,0-1.77.06-2.71.1l-.7-.59a72.8,72.8,0,0,0-10.82-7.21,1.48,1.48,0,0,0,0-.21c-.14-3.19-.34-5.22-.34-5.22S65,.77,55.08.13L53.65.05A63.77,63.77,0,0,1,63.76,7.42l.51.49c-.86,0-1.77.06-2.7.1l-.7-.59A72.6,72.6,0,0,0,49.65,0,116.68,116.68,0,0,0,38,.73,64,64,0,0,1,47.4,8.19q.48.48.9,1l-1.95.28-1-1a74.87,74.87,0,0,0-9.88-7.38V1A98.25,98.25,0,0,0,22,3.76a56.63,56.63,0,0,1,10.76,7.46c.36.35.7.71,1,1.06-.57.19-1.12.38-1.66.58-.33-.34-.69-.69-1.07-1a64.24,64.24,0,0,0-11.25-7.4,47.12,47.12,0,0,0-10,4.34A12.67,12.67,0,0,0,7.18,10.9a60.8,60.8,0,0,1,13.38,7.8c.37.3.72.61,1.07.93a6.08,6.08,0,0,0-.47.66c-.15.23-.29.47-.43.71-.38-.35-.77-.69-1.18-1C14.43,15.77,7,12.6,6.07,12.21a26.79,26.79,0,0,0-4.18,9.33,64.18,64.18,0,0,1,13.76,6.38c.62.39,1.24.8,1.84,1.22-.15.57-.29,1.13-.42,1.7-.62-.44-1.25-.87-1.88-1.28A64.63,64.63,0,0,0,1.5,23.14a66.3,66.3,0,0,0-1.44,12,75.31,75.31,0,0,1,13.73,6.12c.56.33,1.12.67,1.67,1,0,.64-.08,1.27-.11,1.88-.5-.34-1-.67-1.55-1A73,73,0,0,0,0,36.82C-.1,43.59.57,49.16,1,50.3c1,2.72,13,6.05,14.4,6.44v0h.14c.7,0,4.28.28,9.27.39a32.85,32.85,0,0,0,.81,6.24c1,2.72,13,6.05,14.4,6.44v0h.13c.94.06,6.93.45,14.6.45,12.52,0,29.5-1,36.3-6.18C102.39,55.57,98.94,21,98.94,21Zm-57.25,23c-.61-.44-1.24-.87-1.88-1.28a63.75,63.75,0,0,0-13.69-6.41,67.92,67.92,0,0,0-1.44,12,75.08,75.08,0,0,1,13.73,6.11c.57.33,1.12.67,1.67,1C40,56,40,56.6,40,57.21c-.5-.34-1-.67-1.54-1a73.56,73.56,0,0,0-13.79-6.3c0,1,0,1.92,0,2.84-2.26-.06-4.22-.13-5.72-.21A68.2,68.2,0,0,1,18,41.19c.06-6.88,1.41-16.16,7.45-21.32s19.13-8,36.76-8c3.25,0,6.07.1,8.13.21,0,.37,0,.76.06,1.18-2.47.11-5.12.32-7.85.62A63,63,0,0,1,72,21.29c.32.32.62.64.91,1l-2,.28q-.48-.5-1-1a74.16,74.16,0,0,0-9.88-7.38v0a97.11,97.11,0,0,0-13.49,2.73,55.8,55.8,0,0,1,10.76,7.45c.36.35.7.71,1,1.06L56.7,26c-.33-.34-.68-.69-1.07-1a64.57,64.57,0,0,0-11.24-7.4,47.41,47.41,0,0,0-10,4.34A12.47,12.47,0,0,0,31.81,24a60.79,60.79,0,0,1,13.37,7.8c.37.3.73.61,1.07.93a7.85,7.85,0,0,0-.47.66c-.15.23-.29.47-.43.71-.37-.34-.77-.69-1.18-1-5.12-4.21-12.55-7.38-13.47-7.77a26.7,26.7,0,0,0-4.19,9.33A64.94,64.94,0,0,1,40.28,41c.62.39,1.23.8,1.84,1.22C42,42.81,41.82,43.37,41.69,43.94ZM95,39.19c-.65,11.14-2.94,18.74-6.45,21.4-4.48,3.39-16.8,5.33-33.81,5.33-4.59,0-8.6-.14-11.22-.26a69.43,69.43,0,0,1-.88-11.37c.07-6.88,1.41-16.16,7.45-21.32s19.14-8,36.77-8c3.25,0,6.06.1,8.12.21A129.3,129.3,0,0,1,95,39.19Z"/><path class="cls-2" d="M77.91,35.16c-8.83,0-15.37,1.43-18.41,4s-3.7,7.23-3.73,10.67a35.41,35.41,0,0,0,.44,5.69c1.31.06,3.32.13,5.62.13,8.51,0,14.68-1,16.92-2.66,1.76-1.34,2.91-5.14,3.23-10.72a64.84,64.84,0,0,0,0-7C80.94,35.21,79.53,35.16,77.91,35.16Z"/><path d="M177.29,57l-.12-23.1L166,52.66h-5.48L149.33,34.48V57h-11.4V13.36h10.15L163.4,38.53l14.95-25.17H188.5l.13,43.6Z"/><path d="M203.57,13.36h12.34V57H203.57Z"/><path d="M260.12,34.23H271V52.29a28.14,28.14,0,0,1-8.59,4.11,34.05,34.05,0,0,1-9.72,1.43,26,26,0,0,1-12.33-2.89,21.56,21.56,0,0,1-8.59-8.07,22.2,22.2,0,0,1-3.12-11.71,22.22,22.22,0,0,1,3.12-11.71,21.5,21.5,0,0,1,8.65-8.06A26.66,26.66,0,0,1,253,12.49a27.88,27.88,0,0,1,11,2.06,21.17,21.17,0,0,1,8.1,5.91l-7.85,7.1a13.85,13.85,0,0,0-10.59-4.85,12.3,12.3,0,0,0-9,3.39,12.2,12.2,0,0,0-3.42,9.06,13.16,13.16,0,0,0,1.56,6.45A11.14,11.14,0,0,0,247,46a12.79,12.79,0,0,0,6.42,1.59,15.78,15.78,0,0,0,6.66-1.43Z"/><path d="M294.66,54.91a21.81,21.81,0,0,1-11.8-19.75,21.81,21.81,0,0,1,11.8-19.74,27.81,27.81,0,0,1,24.85,0,21.81,21.81,0,0,1,11.8,19.74,21.81,21.81,0,0,1-11.8,19.75,27.9,27.9,0,0,1-24.85,0Zm18.4-8.85a11.2,11.2,0,0,0,4.24-4.39,13.39,13.39,0,0,0,1.55-6.51,13.39,13.39,0,0,0-1.55-6.51,11.27,11.27,0,0,0-4.24-4.39,12.31,12.31,0,0,0-12,0,11.31,11.31,0,0,0-4.23,4.39,13.28,13.28,0,0,0-1.56,6.51,13.28,13.28,0,0,0,1.56,6.51,11.24,11.24,0,0,0,4.23,4.39,12.24,12.24,0,0,0,12,0Z"/><path d="M352.67,23.14H339.28V13.36h39.05v9.78H365V57H352.67Z"/><path d="M398.11,54.91A21.84,21.84,0,0,1,386.3,35.16a21.84,21.84,0,0,1,11.81-19.74,27.81,27.81,0,0,1,24.85,0,21.86,21.86,0,0,1,11.8,19.74A21.86,21.86,0,0,1,423,54.91a27.9,27.9,0,0,1-24.85,0Zm18.4-8.85a11.2,11.2,0,0,0,4.24-4.39,13.39,13.39,0,0,0,1.55-6.51,13.39,13.39,0,0,0-1.55-6.51,11.27,11.27,0,0,0-4.24-4.39,12.31,12.31,0,0,0-12,0,11.24,11.24,0,0,0-4.23,4.39,13.28,13.28,0,0,0-1.56,6.51,13.28,13.28,0,0,0,1.56,6.51,11.17,11.17,0,0,0,4.23,4.39,12.24,12.24,0,0,0,12,0Z"/><path d="M476.86,56.53a25.61,25.61,0,0,1-8.1-3.49l4.05-9.1a26,26,0,0,0,6.79,3.12,25.8,25.8,0,0,0,7.6,1.18q7.1,0,7.1-3.55a3,3,0,0,0-2-2.77,37.94,37.94,0,0,0-6.51-1.9,61.19,61.19,0,0,1-8.22-2.27,13.81,13.81,0,0,1-5.66-3.89,10.53,10.53,0,0,1-2.37-7.23,12.52,12.52,0,0,1,2.18-7.19,14.58,14.58,0,0,1,6.51-5.08,26.85,26.85,0,0,1,10.62-1.87,37.18,37.18,0,0,1,8.47,1,26.05,26.05,0,0,1,7.35,2.83l-3.8,9.16a25.33,25.33,0,0,0-12.09-3.37,10.17,10.17,0,0,0-5.35,1.09A3.28,3.28,0,0,0,481.72,26a2.8,2.8,0,0,0,2,2.61,35.16,35.16,0,0,0,6.41,1.81,60.5,60.5,0,0,1,8.26,2.27A14.28,14.28,0,0,1,504,36.56a10.34,10.34,0,0,1,2.4,7.2,12.23,12.23,0,0,1-2.18,7.1,14.75,14.75,0,0,1-6.54,5.07,26.33,26.33,0,0,1-10.58,1.9A40.4,40.4,0,0,1,476.86,56.53Z"/><path d="M523.35,52.54q-5.39-5.3-5.39-15V13.36H530.3v23.8q0,10.46,8.28,10.46t8.22-10.46V13.36h12.14V37.53q0,9.72-5.38,15t-15.11,5.29Q528.75,57.83,523.35,52.54Z"/><path d="M578.56,56.53A25.44,25.44,0,0,1,570.47,53l4-9.1a26.35,26.35,0,0,0,6.79,3.12,25.85,25.85,0,0,0,7.6,1.18q7.1,0,7.1-3.55a2.94,2.94,0,0,0-2-2.77,37.94,37.94,0,0,0-6.51-1.9,61.19,61.19,0,0,1-8.22-2.27,13.91,13.91,0,0,1-5.67-3.89,10.53,10.53,0,0,1-2.37-7.23,12.52,12.52,0,0,1,2.18-7.19,14.69,14.69,0,0,1,6.51-5.08,26.92,26.92,0,0,1,10.62-1.87,37.05,37.05,0,0,1,8.47,1,26.05,26.05,0,0,1,7.35,2.83l-3.8,9.16a25.3,25.3,0,0,0-12.08-3.37,10.21,10.21,0,0,0-5.36,1.09A3.28,3.28,0,0,0,583.42,26a2.8,2.8,0,0,0,2,2.61,35.07,35.07,0,0,0,6.42,1.81,60.72,60.72,0,0,1,8.25,2.27,14.32,14.32,0,0,1,5.67,3.86,10.34,10.34,0,0,1,2.4,7.2,12.3,12.3,0,0,1-2.18,7.1,14.86,14.86,0,0,1-6.54,5.07,26.42,26.42,0,0,1-10.59,1.9A40.4,40.4,0,0,1,578.56,56.53Z"/><path d="M661.52,13.36V57H649.19V40H632.37V57H620V13.36h12.33V29.74h16.82V13.36Z"/><path d="M676.47,13.36H688.8V57H676.47Z"/></g></g></svg>